<?xml version="1.0"?>
<svg width="1280" height="640" xmlns="http://www.w3.org/2000/svg" xmlns:svg="http://www.w3.org/2000/svg" preserveAspectRatio="xMidYMid meet">
 <metadata>Created by potrace 1.15, written by Peter Selinger 2001-2017</metadata>

 <g class="layer">
  <title>Layer 1</title>
  <g fill="#000000" id="svg_1" transform="translate(0 640) scale(0.1 -0.1)">
   <path d="m3202,5783c-28,-56 -45,-138 -46,-225c-1,-67 2,-80 21,-99c19,-20 26,-21 48,-11c32,15 52,62 71,166c27,155 15,206 -49,206c-21,0 -31,-8 -45,-37z" id="svg_2"/>
   <path d="m2651,5753c-16,-55 -14,-86 10,-148c23,-63 119,-175 150,-175c33,0 42,35 24,97c-33,113 -124,263 -161,263c-7,0 -18,-17 -23,-37z" id="svg_3"/>
   <path d="m3675,5464c-78,-52 -155,-122 -155,-140c0,-22 31,-44 61,-44c40,0 81,22 161,86c81,65 91,89 54,121c-15,13 -33,23 -39,23c-7,0 -44,-21 -82,-46z" id="svg_4"/>
   <path d="m2316,5463c-30,-31 72,-141 184,-197c100,-49 150,-48 150,4c0,34 -45,80 -120,121c-84,46 -200,85 -214,72z" id="svg_5"/>
   <path d="m2912,5399c-83,-47 -194,-158 -230,-231c-34,-67 -62,-176 -62,-245c0,-159 90,-307 228,-371c53,-25 66,-27 182,-26c107,1 136,5 197,26c163,58 274,141 325,246c32,64 33,71 33,187c-1,131 -13,176 -70,243c-80,96 -246,122 -373,60c-64,-32 -162,-126 -196,-188c-39,-71 -34,-146 14,-243c43,-88 65,-100 175,-95c69,2 88,7 124,31c49,32 91,110 91,167c0,77 -68,136 -147,127c-74,-8 -102,-55 -71,-122c16,-36 2,-43 -28,-13c-18,17 -28,40 -31,70c-4,37 -1,49 21,75c40,48 126,86 191,86c43,0 63,-6 93,-27c55,-38 66,-63 59,-137c-15,-173 -174,-329 -350,-346c-92,-8 -154,14 -211,78c-107,119 -78,313 67,445c33,30 64,54 69,54c14,0 48,79 48,113c0,71 -61,86 -148,36z" id="svg_6"/>
   <path d="m5435,5227c-16,-24 -22,-27 -54,-21c-20,4 -39,12 -43,18c-6,8 -8,8 -8,0c0,-7 -17,-15 -37,-19c-21,-3 -52,-15 -70,-25c-31,-18 -32,-18 -46,3c-8,12 -18,19 -22,15c-4,-4 0,-17 8,-29c15,-20 14,-24 -10,-55c-32,-43 -63,-142 -63,-205c0,-48 -1,-49 -29,-49c-42,0 -48,-18 -9,-22c18,-2 32,-6 31,-10c-2,-5 -3,-76 -3,-159l0,-151l-30,5c-16,4 -32,2 -35,-3c-3,-5 10,-12 30,-16c28,-5 35,-11 35,-30c0,-23 -3,-24 -61,-24c-37,0 -58,-4 -54,-10c3,-5 24,-10 45,-10c21,0 45,-2 52,-5c20,-8 11,-63 -11,-68c-14,-4 -14,-5 2,-6c15,-1 17,-14 17,-116c0,-96 -3,-115 -15,-115c-8,0 -15,-4 -15,-10c0,-5 7,-10 15,-10c13,0 15,-24 15,-155c0,-148 -1,-155 -20,-155c-26,0 -26,-16 1,-23c15,-4 20,-12 17,-28c-2,-19 -10,-23 -38,-23c-49,-1 -49,-20 0,-24c36,-3 40,-6 40,-31c0,-15 -5,-32 -11,-38c-6,-6 -7,-13 -2,-16c4,-3 7,-117 5,-255l-3,-250l-94,52l-95,51l0,176c0,166 -1,178 -24,224c-20,38 -22,51 -13,66c15,24 1,37 -20,16c-15,-15 -19,-15 -47,0c-17,9 -53,22 -81,28c-39,9 -51,16 -56,36l-7,24l-1,-26c-1,-22 -9,-29 -46,-43c-40,-16 -89,-60 -113,-102c-7,-13 -13,-14 -31,-4c-12,6 -27,9 -34,7c-7,-2 2,-11 18,-19c29,-15 30,-18 27,-76l-4,-60l-201,103c-249,128 -399,193 -587,255c-409,135 -725,142 -1091,24c-58,-19 -112,-34 -120,-34c-8,0 -29,31 -46,69c-23,48 -49,83 -88,119c-49,45 -55,54 -45,72c13,24 -4,28 -18,4c-8,-14 -14,-15 -46,-4c-20,6 -36,12 -36,13c0,1 4,18 10,37c9,32 8,33 -5,16c-8,-11 -15,-26 -15,-33c0,-9 -17,-13 -60,-13c-68,0 -151,-32 -213,-81l-38,-31l-40,28c-53,36 -60,25 -10,-18c37,-31 39,-36 26,-54c-21,-31 -52,-132 -60,-196c-6,-54 -8,-58 -33,-59l-27,-1l28,-11c18,-7 27,-18 27,-34c0,-21 -4,-23 -50,-23c-67,0 -64,-16 5,-25c52,-6 55,-8 55,-35c0,-22 -5,-30 -22,-33l-23,-4l23,-8c14,-5 22,-15 22,-29c0,-17 -28,-41 -121,-104c-66,-45 -127,-82 -135,-82c-8,0 -14,10 -14,23c-1,20 -2,21 -14,5c-8,-11 -27,-18 -47,-18c-19,-1 -51,-7 -72,-14c-36,-13 -38,-13 -58,16c-26,36 -36,30 -16,-8c14,-27 14,-29 -32,-70c-44,-40 -101,-134 -101,-168c0,-10 -9,-16 -22,-17c-17,-1 -19,-2 -6,-6c32,-8 19,-30 -53,-88c-239,-193 -586,-512 -847,-780l-182,-186l0,-225c0,-190 -2,-226 -15,-230c-13,-5 -15,-66 -15,-460l0,-454l6400,0l6400,0l0,999l0,999l-162,130c-774,616 -1586,1090 -2172,1267c-235,70 -349,89 -556,89c-152,0 -203,-4 -286,-22c-232,-50 -508,-170 -784,-340l-145,-90l-17,29c-10,16 -41,51 -69,78c-45,43 -50,51 -40,70c14,26 -2,28 -20,2c-13,-17 -17,-17 -46,-5c-29,12 -31,16 -23,44c5,16 5,30 0,30c-5,0 -11,-12 -14,-27c-6,-27 -9,-28 -70,-29c-51,0 -78,-7 -128,-32c-35,-17 -74,-42 -87,-56l-24,-25l-43,31c-57,41 -66,31 -15,-15l39,-35l-20,-41c-27,-54 -48,-137 -48,-188c0,-42 -1,-43 -32,-44l-33,-1l33,-14c21,-9 32,-21 32,-34c0,-17 -7,-20 -40,-20c-39,0 -40,1 -40,34c0,19 -4,46 -10,60c-6,17 -6,26 0,26c6,0 10,5 10,10c0,6 -6,10 -12,10c-7,0 -23,18 -36,41c-25,42 -94,94 -143,104c-22,5 -29,12 -29,31c0,14 -4,22 -10,19c-5,-3 -10,-14 -10,-24c0,-13 -13,-21 -47,-29c-27,-6 -55,-13 -64,-17c-13,-5 -23,5 -40,34c-12,23 -26,41 -31,41c-12,0 -10,-6 13,-52l21,-40l-41,-41c-23,-22 -52,-64 -66,-94c-24,-50 -28,-53 -63,-53c-27,0 -33,-3 -22,-10c8,-5 26,-10 39,-10c16,0 21,-4 17,-15c-3,-8 -8,-62 -12,-120l-7,-105l-33,0c-18,0 -36,-4 -39,-10c-4,-6 10,-10 34,-10c23,0 41,-4 41,-10c0,-5 -9,-10 -19,-10c-11,0 -23,-4 -26,-10c-3,-6 5,-10 19,-10c21,0 26,-6 30,-32c2,-18 9,-66 15,-106c6,-40 11,-79 11,-88c0,-30 -300,-154 -499,-205c-160,-41 -292,-59 -451,-59c-124,0 -245,12 -258,25c-3,3 -7,41 -10,84c-4,71 -3,80 14,84c17,4 17,5 -2,6c-15,1 -24,12 -33,43c-17,56 -50,106 -100,151c-41,37 -41,38 -25,62c9,14 14,29 10,33c-4,4 -12,0 -16,-8c-26,-42 -26,-42 -66,-31c-22,6 -54,11 -73,11c-20,0 -39,7 -47,18c-12,16 -13,16 -14,-4c0,-15 -8,-24 -26,-28c-36,-9 -108,-79 -129,-125c-13,-29 -25,-41 -44,-44c-26,-4 -26,-4 -3,-12c20,-6 22,-12 16,-44c-4,-20 -8,-38 -10,-40c-4,-4 -118,42 -143,58c-11,7 -15,52 -19,203l-5,194l97,12c107,13 155,33 217,89c52,47 132,167 159,240c31,81 38,208 16,267c-21,56 -83,113 -132,122c-49,9 -130,-11 -171,-42c-45,-34 -61,-77 -73,-202c-12,-115 -37,-184 -77,-210l-23,-14l0,410l0,411l46,37c52,43 43,60 -10,19l-34,-26l-4,328c-3,304 -5,332 -25,388c-17,47 -19,63 -10,74c10,12 9,14 -6,8c-12,-5 -30,2 -52,20c-27,22 -32,30 -24,46c17,31 4,43 -16,14zm2631,-1907c16,0 23,-7 26,-30c4,-26 1,-30 -19,-30c-14,0 -21,-4 -18,-10c3,-5 15,-10 26,-10c10,0 19,-4 19,-10c0,-11 -119,-94 -126,-87c-3,3 -2,28 2,57c5,39 12,54 28,60c18,8 19,9 2,9c-12,1 -16,6 -12,17c3,9 6,23 6,31c0,11 6,14 23,9c12,-3 32,-6 43,-6z" fill="black" id="svg_7"/>
   <path d="m3875,5079c-81,-12 -190,-45 -205,-63c-19,-24 -8,-50 32,-71c34,-18 42,-18 124,-7c48,7 117,23 153,35c62,21 66,24 69,55c6,63 -26,72 -173,51z" id="svg_8"/>
   <path d="m2286,5050c-37,-11 -66,-38 -66,-61c0,-52 164,-85 289,-58c93,20 110,80 31,111c-49,18 -202,23 -254,8z" id="svg_9"/>
   <path d="m3606,4754c-34,-33 -20,-62 52,-108c114,-73 223,-127 250,-124c27,3 49,45 39,72c-7,18 -185,142 -231,161c-46,19 -91,19 -110,-1z" id="svg_10"/>
   <path d="m2531,4669c-52,-23 -125,-80 -148,-115c-12,-19 -13,-27 -3,-39c51,-61 287,89 249,158c-13,22 -44,21 -98,-4z" id="svg_11"/>
   <path d="m3391,4534c-20,-14 -23,-23 -18,-61c7,-64 58,-159 122,-231c60,-66 89,-77 118,-44c25,27 22,44 -30,160c-50,112 -112,192 -149,192c-11,0 -30,-7 -43,-16z" id="svg_12"/>
   <path d="m2810,4453c-75,-85 -133,-261 -97,-292c60,-49 219,202 193,304c-10,40 -56,34 -96,-12z" id="svg_13"/>
   <path d="m3123,4418c-12,-24 -18,-65 -21,-148c-4,-139 10,-193 51,-198c42,-5 60,42 65,166c5,112 -12,183 -48,202c-26,14 -28,14 -47,-22z" id="svg_14"/>
  </g>
  <text fill="#ffffff" font-family="serif" font-size="262" font-weight="normal" id="svg_16" stroke-dasharray="null" stroke-linecap="null" stroke-linejoin="null" stroke-width="0" text-anchor="middle" x="643.5" xml:space="preserve" y="563.5">Sam Alves</text>
 </g>
</svg>